# xmcd
#
# Track frame offsets:
#	180
#	21212
#	45522
#	62787
#	84367
#	103003
#	121788
#	137630
#	153235
#	168764
#	188857
#	206360
#
# Disc length: 2931 seconds
#
# Revision: 1
# Processed by: cddbd v1.5.2PL0 Copyright (c) Steve Scherf et al.
# Submitted via: audiograbber 1.83.01
#
DISCID=900b710c
DTITLE=Instrumental - CD 3 - Die guten alten Zeiten - Schlager der 30er, 40er u
DTITLE=nd 50er
DYEAR=1900
DGENRE=Oldies
TTITLE0=Was Du mir erzählt hast - Nur nicht aus Liebe weinen - Bei mir bist du 
TTITLE0=scheen
TTITLE1=So wird's nie wieder sein - Die kleine Stadt will schlafen - Bei mir wa
TTITLE1=r es immer so schön
TTITLE2=Komm zu mir heut Nacht - So schön wie heut - Hallo kleines Fräulein
TTITLE3=Ich werde jede Nacht - Abends in der Taverne - Musik liegt in der Luft
TTITLE4=Glutrote Rosen - Wenn der weiße Flieder - Die ganze Welt ist himmelblau
TTITLE5=Kauf dir einen bunten Luftballon - Unter einem Regenschirm - Nachts gin
TTITLE5=g das Telefon
TTITLE6=Vergiss mein nicht - Glube mir - Sag beim Abschied
TTITLE7=Gigolo - Du hast Glück bei den Frau'n, Belami - Liebling was wird nun a
TTITLE7=us uns beiden
TTITLE8=Schenk' deiner Frau - Du schwarzer Zigeuner - In einer kleinen Konditor
TTITLE8=ei 
TTITLE9=Dunkelrote Rosen - Wie ein Wunder - Ein Walzer für dich
TTITLE10=Zwei in einer großen Stadt - Es war einmal eine Liebe - Ganz leise kli
TTITLE10=ngt Musik
TTITLE11=Fräulein Helen - Mein Papagei - Ausgerechnet Bananen - Veronika der Le
TTITLE11=nz ist da
EXTD=
EXTT0=
EXTT1=
EXTT2=
EXTT3=
EXTT4=
EXTT5=
EXTT6=
EXTT7=
EXTT8=
EXTT9=
EXTT10=
EXTT11=
PLAYORDER=
